<svg width="20" height="20" viewBox="0 0 20 20" fill="none" xmlns="http://www.w3.org/2000/svg">
<path d="M10 20C12.6522 20 15.1957 18.9464 17.0711 17.0711C18.9464 15.1957 20 12.6522 20 10C20 7.34784 18.9464 4.8043 17.0711 2.92893C15.1957 1.05357 12.6522 0 10 0C7.34784 0 4.8043 1.05357 2.92893 2.92893C1.05357 4.8043 0 7.34784 0 10C0 12.6522 1.05357 15.1957 2.92893 17.0711C4.8043 18.9464 7.34784 20 10 20ZM6.22266 15.1836C6.12109 15.5117 5.76953 15.6992 5.44141 15.5938C5.11328 15.4883 4.92578 15.1406 5.03125 14.8125C5.67188 12.7383 7.66797 11.25 10 11.25C12.332 11.25 14.3281 12.7383 14.9727 14.8164C15.0742 15.1445 14.8906 15.4961 14.5625 15.5977C14.2344 15.6992 13.8828 15.5156 13.7812 15.1875C13.3008 13.6484 11.8008 12.5 10 12.5C8.19922 12.5 6.69922 13.6484 6.22266 15.1836ZM5.64062 8.125C5.64062 7.79348 5.77232 7.47554 6.00674 7.24112C6.24116 7.0067 6.5591 6.875 6.89062 6.875C7.22215 6.875 7.54009 7.0067 7.77451 7.24112C8.00893 7.47554 8.14062 7.79348 8.14062 8.125C8.14062 8.45652 8.00893 8.77446 7.77451 9.00888C7.54009 9.2433 7.22215 9.375 6.89062 9.375C6.5591 9.375 6.24116 9.2433 6.00674 9.00888C5.77232 8.77446 5.64062 8.45652 5.64062 8.125ZM13.1406 6.875C13.4721 6.875 13.7901 7.0067 14.0245 7.24112C14.2589 7.47554 14.3906 7.79348 14.3906 8.125C14.3906 8.45652 14.2589 8.77446 14.0245 9.00888C13.7901 9.2433 13.4721 9.375 13.1406 9.375C12.8091 9.375 12.4912 9.2433 12.2567 9.00888C12.0223 8.77446 11.8906 8.45652 11.8906 8.125C11.8906 7.79348 12.0223 7.47554 12.2567 7.24112C12.4912 7.0067 12.8091 6.875 13.1406 6.875Z" fill="#FA5659"/>
</svg>
