<svg width="24" height="32" viewBox="0 0 24 32" fill="none" xmlns="http://www.w3.org/2000/svg">
<path d="M13.4812 31.281C16.6875 27.258 24 17.5078 24 12.0311C24 5.38895 18.625 0 12 0C5.375 0 0 5.38895 0 12.0311C0 17.5078 7.3125 27.258 10.5188 31.281C11.2875 32.2397 12.7125 32.2397 13.4812 31.281ZM12 8.02076C13.0609 8.02076 14.0783 8.44328 14.8284 9.19537C15.5786 9.94746 16 10.9675 16 12.0311C16 13.0948 15.5786 14.1148 14.8284 14.8669C14.0783 15.619 13.0609 16.0415 12 16.0415C10.9391 16.0415 9.92172 15.619 9.17157 14.8669C8.42143 14.1148 8 13.0948 8 12.0311C8 10.9675 8.42143 9.94746 9.17157 9.19537C9.92172 8.44328 10.9391 8.02076 12 8.02076Z" fill="#1D1D1D"/>
</svg>
