<?xml version="1.0" encoding="UTF-8"?><svg id="Calque_2" xmlns="http://www.w3.org/2000/svg" viewBox="0 0 218.23 90.34"><defs><style>.cls-1{stroke-width:0px;}</style></defs><g id="Calque_1-2"><path class="cls-1" d="m174.16,4c2.18,0,3.95,1.77,3.95,3.95v74.43c0,2.18-1.77,3.95-3.95,3.95H44.07c-2.18,0-3.95-1.77-3.95-3.95V7.95c0-2.18,1.77-3.95,3.95-3.95h130.09M174.16,0H44.07C39.67,0,36.11,3.56,36.11,7.95v74.43c0,4.39,3.56,7.95,7.95,7.95h130.09c4.39,0,7.95-3.56,7.95-7.95V7.95C182.12,3.56,178.55,0,174.16,0h0Z"/><path class="cls-1" d="m15.09,4c2.18,0,3.95,1.77,3.95,3.95v74.43c0,2.18-1.77,3.95-3.95,3.95h-7.13c-2.18,0-3.95-1.77-3.95-3.95V7.95c0-2.18,1.77-3.95,3.95-3.95h7.13m0-4h-7.13C3.56,0,0,3.56,0,7.95v74.43c0,4.39,3.56,7.95,7.95,7.95h7.13c4.39,0,7.95-3.56,7.95-7.95V7.95c0-4.39-3.56-7.95-7.95-7.95h0Z"/><path class="cls-1" d="m210.27,4c2.18,0,3.95,1.77,3.95,3.95v74.43c0,2.18-1.77,3.95-3.95,3.95h-7.13c-2.18,0-3.95-1.77-3.95-3.95V7.95c0-2.18,1.77-3.95,3.95-3.95h7.13m0-4h-7.13c-4.39,0-7.95,3.56-7.95,7.95v74.43c0,4.39,3.56,7.95,7.95,7.95h7.13c4.39,0,7.95-3.56,7.95-7.95V7.95c0-4.39-3.56-7.95-7.95-7.95h0Z"/><path class="cls-1" d="m162.53,21.26c.7,0,1.27.57,1.27,1.27v6.35c0,.7-.57,1.27-1.27,1.27H55.7c-.7,0-1.27-.57-1.27-1.27v-6.35c0-.7.57-1.27,1.27-1.27h106.84m0-4H55.7c-2.91,0-5.27,2.36-5.27,5.27v6.35c0,2.91,2.36,5.27,5.27,5.27h106.84c2.91,0,5.27-2.36,5.27-5.27v-6.35c0-2.91-2.36-5.27-5.27-5.27h0Z"/><path class="cls-1" d="m162.79,44.59c.56,0,1.01.45,1.01,1.01v23.75c0,.56-.45,1.01-1.01,1.01H55.44c-.56,0-1.01-.45-1.01-1.01v-23.75c0-.56.45-1.01,1.01-1.01h107.35m0-4H55.44c-2.77,0-5.01,2.24-5.01,5.01v23.75c0,2.77,2.24,5.01,5.01,5.01h107.35c2.77,0,5.01-2.24,5.01-5.01v-23.75c0-2.77-2.24-5.01-5.01-5.01h0Z"/></g></svg>